# xmcd CD database generated by RipIT
#
# Track frame offsets:
# 150
# 23559
# 41890
#
# Disc length: 832 seconds
#
# Revision: 0
# Processed by: cddbd v1.5.2PL0 Copyright (c) Steve Scherf et al.
# Submitted via: RipIT 3.6.0 www.suwald.com/ripit/ripit.html on 2007-10-14 at 13:40
#
DISCID=1c033e03
DTITLE=Jacky Lagger - LA FA MI
DYEAR=2000
DGENRE=Chanson
TTITLE0=Enfante de vous connaitre
TTITLE1=Les toilettes en bois
TTITLE2=LA FA MI
EXTD=Extrait du CD LA FA MI (14 titres)
EXTD=\n
EXTT0=
EXTT1=
EXTT2=
PLAYORDER=
